HIERARCHY
ROOT Hips
{
	OFFSET	0.00	0.00	0.00
	CHANNELS 6 Xposition Yposition Zposition Zrotation Xrotation Yrotation
	JOINT Spine
	{
		OFFSET	 0.00	0.01	 0.00
		CHANNELS 3 Zrotation Xrotation Yrotation
		JOINT Spine1
		{
			OFFSET	 0.00	 2.45913012437421	 0.00
			CHANNELS 3 Zrotation Xrotation Yrotation
            JOINT Neck
            {
                OFFSET	 0.00	 2.48462964506057	 0.00
                CHANNELS 3 Zrotation Xrotation Yrotation
                JOINT Head
                {
                    OFFSET	 0.00	 0.927524780924562	 0.00
                    CHANNELS 3 Zrotation Xrotation Yrotation
                    End Site 
                    {
                        OFFSET	 0.00	 1.14999962169752	 0.00
                    }
                }
            }
			JOINT LeftShoulder
			{
				OFFSET	 0.00	 2.48462964506057	 0.00
				CHANNELS 3 Zrotation Xrotation Yrotation
				JOINT LeftUpArm
				{
					OFFSET	 0.00	 1.24881979654096	 0.00
					CHANNELS 3 Zrotation Xrotation Yrotation
					JOINT LeftForeArm
					{
						OFFSET	 0.00	2.59758046908119	 0.00
						CHANNELS 3 Zrotation Xrotation Yrotation
						JOINT LeftHand
						{
							OFFSET	 0.00	2.45542024364365	 0.00
							CHANNELS 3 Zrotation Xrotation Yrotation
							JOINT LeftHandThumb 
							{
								OFFSET	 0.00	0.00	 0.00
								CHANNELS 3 Zrotation Xrotation Yrotation
								End Site
								{
									OFFSET	 0.00	0.00	1.00000003353624
								}
							}
							JOINT L_Wrist_End 
							{
								OFFSET	 0.00	0.99999967115358	 0.00
								CHANNELS 3 Zrotation Xrotation Yrotation
								End Site 
								{
									OFFSET	 0.00	 0.00	 0.00
								}
							}
						}
					}
				}
			}
			JOINT RightShoulder
			{
				OFFSET	 0.00	 2.48462964506057	 0.00
				CHANNELS 3 Zrotation Xrotation Yrotation
				JOINT RightUpArm
				{
					OFFSET	 0.00	 1.24881979654096	 0.00
					CHANNELS 3 Zrotation Xrotation Yrotation
					JOINT RightForeArm
					{
						OFFSET	 0.00	2.59758046908119	 0.00
						CHANNELS 3 Zrotation Xrotation Yrotation
						JOINT RightHand
						{
							OFFSET	 0.00	2.45542024364365	 0.00
							CHANNELS 3 Zrotation Xrotation Yrotation
							JOINT RightHandThumb 
							{
								OFFSET	 0.00	0.00	 0.00
								CHANNELS 3 Zrotation Xrotation Yrotation
								End Site
								{
									OFFSET	 0.00	0.00	1.00000003353624
								}
							}
							JOINT R_Wrist_End 
							{
								OFFSET	 0.00	0.99999967115358	 0.00
								CHANNELS 3 Zrotation Xrotation Yrotation
								End Site 
								{
									OFFSET	 0.00	 0.00	 0.00
								}
							}
						}
					}
				}
			}
		}
	}
	JOINT LeftUpLeg
	{
		OFFSET	 1.2719394002717	 0.00	 0.00
		CHANNELS 3 Zrotation Xrotation Yrotation
		JOINT LeftLowLeg
		{
			OFFSET	 0.00	-4.3429100912261	 0.00
			CHANNELS 3 Zrotation Xrotation Yrotation
			JOINT LeftFoot
			{
				OFFSET	 0.00	-4.48767017425826	 0.00
				CHANNELS 3 Zrotation Xrotation Yrotation
				JOINT LeftToeBase
                {
                    OFFSET	 0.00	0.00	 1.51507020887566
                    CHANNELS 3 Zrotation Xrotation Yrotation
                    End Site 
                    {
                        OFFSET	 0.00	0.00	 0.75000010571191
                    }
                }
			}
		}
	}
	JOINT RightUpLeg
	{
		OFFSET	 -1.2719393604653	 0.00	 0.00
		CHANNELS 3 Zrotation Xrotation Yrotation
		JOINT RightLowLeg
		{
			OFFSET	 0.00	-4.3429100912261	 0.00
			CHANNELS 3 Zrotation Xrotation Yrotation
			JOINT RightFoot
			{
				OFFSET	 0.00	-4.48767017425826	 0.00
				CHANNELS 3 Zrotation Xrotation Yrotation
				JOINT RightToeBase
                {
                    OFFSET	 0.00	0.00	 1.51507020887566
                    CHANNELS 3 Zrotation Xrotation Yrotation
                    End Site 
                    {
                        OFFSET	 0.00	0.00	 0.749999965609858
                    }
                }   
			}
		}
	}
}
MOTION 
Frames:	10 
Frame Time: 0.02 
  15.329300537109376 2.775740051269531 10.1375 81.8923 82.6221 -245.202 -0.0327278 -5.8367 -1.14452 -1.67085 13.6457 2.61151 48.2413 28.144 -34.0231 34.1622 -39.5712 26.9763 -100.8084 -2.54901 4.86078 -52.6029 12.4882 21.7966 0.0 24.2833 0.0 21.2962 -12.5183 -3.42315 0.0 0.0 0.0 0.0 0.0 0.0 96.88982 -5.62463 -2.58841 48.5504 7.24476 -30.812 0.0 105.887 0.0 -17.2728 -3.10029 27.0489 0.0 0.0 0.0 0.0 0.0 0.0 7.10044 -17.9752 -6.71604 0.0 49.7084 0.0 15.5826 8.45343 -5.3391 0.0 -51.1372 0.0 6.91836 -7.25885 -1.21978 0.0 10.218 0.0 8.49753 14.009393 0.158953 0.0 -28.606499 0.0 
  15.358299560546875 2.814010009765625 10.146199951171875 81.4874 82.7718 -243.559 -0.2324 -5.82907 -0.937092 -1.79245 13.6453 2.85517 48.3574 28.3631 -33.9508 34.104 -39.6513 26.9309 -100.8938 -2.99537 4.99465 -52.718 12.9178 21.867 0.0 24.7457 0.0 21.3167 -12.2889 -3.22859 0.0 0.0 0.0 0.0 0.0 0.0 96.57759 -5.26434 -2.38373 48.803 6.88275 -28.3342 0.0 109.667 0.0 -12.3988 -3.76554 34.8594 0.0 0.0 0.0 0.0 0.0 0.0 7.38177 -18.2996 -4.62416 0.0 49.2703 0.0 14.9863 8.03512 -1.67085 0.0 -48.5233 0.0 6.92954 -6.61406 -1.69479 0.0 9.44649 0.0 8.60413 13.83622 -0.568743 0.0 -28.449799 0.0 
  15.3831005859375 2.8495098876953127 10.153499755859375 80.5713 82.8689 -241.162 -0.444631 -5.8352 -0.897614 -1.79192 13.5274 2.92738 48.1429 28.8552 -33.5226 34.199 -39.9949 26.6422 -101.1709 -2.97438 4.7684 -52.6521 12.3523 21.7908 0.0 25.7365 0.0 21.4454 -12.1758 -3.29673 0.0 0.0 0.0 0.0 0.0 0.0 96.81285 -5.03662 -2.21688 47.9343 7.46374 -26.1075 0.0 113.082 0.0 -8.95924 -3.45538 41.5183 0.0 0.0 0.0 0.0 0.0 0.0 7.66788 -18.5927 -2.8574 0.0 48.0601 0.0 15.7266 7.98493 1.2406 0.0 -47.4555 0.0 6.91324 -6.10965 -2.41539 0.0 8.79518 0.0 8.70525 13.59475 -1.26268 0.0 -28.3191 0.0 
  15.403900146484375 2.8843798828125 10.159199829101562 79.2901 82.913 -238.234 -0.603099 -5.96834 -0.906568 -1.91594 13.5568 2.94086 47.8682 29.1733 -33.134 34.4324 -40.2425 26.4345 -101.3287 -3.06538 4.7619 -52.6416 12.2113 21.7141 0.0 26.4271 0.0 21.3481 -11.3072 -3.65296 0.0 0.0 0.0 0.0 0.0 0.0 96.77963 -4.75953 -2.01749 47.7238 7.71157 -23.7442 0.0 116.067 0.0 -3.91925 -0.866645 51.868 0.0 0.0 0.0 0.0 0.0 0.0 7.94607 -18.8333 -1.48352 0.0 46.3379 0.0 15.4653 7.84434 2.67523 0.0 -46.1879 0.0 6.89672 -5.6829 -3.3324 0.0 8.19367 0.0 8.76926 13.30774 -1.92687 0.0 -28.1546 0.0 
  15.421199951171875 2.9146600341796876 10.1622998046875 77.8739 82.8623 -234.974 -0.698992 -6.11012 -0.960434 -2.04015 13.5585 2.89689 47.5718 29.3417 -32.8569 34.7061 -40.4689 26.2376 -101.5595 -3.07353 4.85856 -52.5087 12.2235 21.7541 0.0 27.272 0.0 21.1953 -11.3075 -3.9976 0.0 0.0 0.0 0.0 0.0 0.0 96.811264 -4.53327 -1.7151 47.4512 8.07494 -21.5584 0.0 118.795 0.0 -0.594161 2.67268 58.495 0.0 0.0 0.0 0.0 0.0 0.0 8.22184 -19.1709 -0.45558 0.0 44.3532 0.0 14.749 7.97039 3.09357 0.0 -45.478203 0.0 6.90254 -5.42238 -4.50646 0.0 7.76514 0.0 8.49187 13.07224 -2.59219 0.0 -28.3423 0.0 
  15.43469970703125 2.943070068359375 10.1625 76.7793 82.7405 -231.951 -0.723151 -6.16687 -0.971511 -2.2076 13.3769 2.87881 47.4718 29.3408 -32.8591 34.8071 -40.6101 26.137 -101.6865 -3.03436 5.08254 -52.4833 12.3299 21.8825 0.0 27.9509 0.0 21.0931 -10.9685 -4.44992 0.0 0.0 0.0 0.0 0.0 0.0 96.96432 -4.43351 -1.56119 47.0765 8.60548 -19.3901 0.0 121.409 0.0 1.84937 6.06543 63.6521 0.0 0.0 0.0 0.0 0.0 0.0 8.54025 -19.5104 0.448311 0.0 42.193 0.0 14.949 8.33786 2.78382 0.0 -45.5179 0.0 6.95204 -5.23296 -5.71619 0.0 7.42444 0.0 8.85426 12.58488 -3.15186 0.0 -28.1173 0.0 
  15.444000244140625 2.970150146484375 10.162000122070312 76.5589 82.6091 -229.768 -0.678621 -6.34137 -0.939622 -2.41753 13.5543 2.9032 47.2471 29.0943 -32.8576 34.9124 -40.5202 26.1704 -101.6829 -2.8318 4.8041 -52.6861 12.1531 22.1026 0.0 28.6398 0.0 20.9672 -10.9269 -4.26634 0.0 0.0 0.0 0.0 0.0 0.0 96.40705 -4.35805 -1.81941 47.9928 8.79041 -17.2776 0.0 123.764 0.0 2.90174 9.1025 66.2587 0.0 0.0 0.0 0.0 0.0 0.0 8.90624 -19.7116 1.32899 0.0 39.8768 0.0 15.623 8.48708 2.2277 0.0 -46.2397 0.0 7.05182 -4.98328 -6.71802 0.0 7.16526 0.0 8.59617 12.34105 -3.97428 0.0 -28.517399 0.0 
  15.4497998046875 2.99010986328125 10.160900268554688 75.9811 82.4124 -227.052 -0.64114 -6.39401 -0.9543 -2.55068 13.3693 2.87065 46.6929 29.0357 -32.4836 35.229 -40.4719 25.8759 -101.7444 -2.71818 4.91824 -52.8792 12.3895 22.2837 0.0 29.038 0.0 20.9063 -10.8936 -3.97384 0.0 0.0 0.0 0.0 0.0 0.0 96.76224 -4.40719 -1.85107 47.2998 9.61941 -15.2905 0.0 125.962 0.0 4.11306 11.6298 68.7984 0.0 0.0 0.0 0.0 0.0 0.0 9.17628 -20.0837 2.02757 0.0 37.5544 0.0 14.9821 8.21003 1.35525 0.0 -45.9264 0.0 7.11749 -4.81682 -7.82428 0.0 6.82908 0.0 8.92152 11.88652 -4.74837 0.0 -28.360699 0.0 
  15.450899658203125 3.009280090332031 10.161400146484375 76.457 82.3907 -225.414 -0.625708 -6.27371 -0.865838 -2.71505 13.2497 2.95036 46.5826 29.0133 -32.4948 35.4449 -40.6696 25.8481 -101.871 -2.6117 5.02324 -53.0316 12.7193 22.3149 0.0 29.4049 0.0 20.5612 -10.5213 -3.58398 0.0 0.0 0.0 0.0 0.0 0.0 96.83827 -4.59457 -1.70839 47.4363 9.83024 -13.7237 0.0 127.845 0.0 5.05442 13.8976 70.9501 0.0 0.0 0.0 0.0 0.0 0.0 9.36989 -20.1616 3.00793 0.0 35.0843 0.0 15.1505 8.318069 1.07346 0.0 -46.1664 0.0 7.13837 -4.42503 -8.87663 0.0 6.4721 0.0 9.10666 11.46117 -5.5836 0.0 -28.23 0.0 
  15.44949951171875 3.0298001098632814 10.161799926757812 76.8499 82.3764 -223.788 -0.746537 -6.21881 -0.735771 -2.72154 13.233 3.10544 46.5428 28.8842 -32.6309 35.4936 -40.797 25.9183 -102.0156 -2.52707 4.98781 -53.2354 12.9447 22.3982 0.0 29.7813 0.0 20.3374 -10.3942 -3.38751 0.0 0.0 0.0 0.0 0.0 0.0 96.87497 -4.85391 -1.55652 47.6909 10.0323 -12.3833 0.0 129.555 0.0 5.75358 15.4079 72.4299 0.0 0.0 0.0 0.0 0.0 0.0 9.63256 -20.148 4.48664 0.0 32.594 0.0 14.8545 8.26539 0.889065 0.0 -45.738197 0.0 7.17151 -4.07652 -9.97182 0.0 6.20739 0.0 9.26536 11.03526 -6.38132 0.0 -28.1394 0.0 
